<svg xmlns="http://www.w3.org/2000/svg" width="13" height="12" viewBox="0 0 13 12" fill="none">
    <path d="M11.2894 5.34236H6.92499V0.977898C6.92499 0.784977 6.84835 0.599958 6.71193 0.463542C6.57552 0.327126 6.3905 0.250488 6.19758 0.250488C6.00466 0.250488 5.81964 0.327126 5.68322 0.463542C5.5468 0.599958 5.47017 0.784977 5.47017 0.977898V5.34236H1.10571C0.912785 5.34236 0.727765 5.419 0.59135 5.55541C0.454934 5.69183 0.378296 5.87685 0.378296 6.06977C0.378296 6.26269 0.454934 6.44771 0.59135 6.58413C0.727765 6.72054 0.912785 6.79718 1.10571 6.79718H5.47017V11.1616C5.47017 11.3546 5.5468 11.5396 5.68322 11.676C5.81964 11.8124 6.00466 11.8891 6.19758 11.8891C6.3905 11.8891 6.57552 11.8124 6.71193 11.676C6.84835 11.5396 6.92499 11.3546 6.92499 11.1616V6.79718H11.2894C11.4824 6.79718 11.6674 6.72054 11.8038 6.58413C11.9402 6.44771 12.0169 6.26269 12.0169 6.06977C12.0169 5.87685 11.9402 5.69183 11.8038 5.55541C11.6674 5.419 11.4824 5.34236 11.2894 5.34236Z" fill="#BDBDBD"/>
</svg>