<svg width="25" height="24" viewBox="0 0 25 24" fill="none" xmlns="http://www.w3.org/2000/svg">
    <path d="M19.5 11H13.5V5C13.5 4.73478 13.3946 4.48043 13.2071 4.29289C13.0196 4.10536 12.7652 4 12.5 4C12.2348 4 11.9804 4.10536 11.7929 4.29289C11.6053 4.48043 11.5 4.73478 11.5 5V11H5.49998C5.23477 11 4.98041 11.1054 4.79288 11.2929C4.60534 11.4804 4.49998 11.7348 4.49998 12C4.49998 12.2652 4.60534 12.5196 4.79288 12.7071C4.98041 12.8946 5.23477 13 5.49998 13H11.5V19C11.5 19.2652 11.6053 19.5196 11.7929 19.7071C11.9804 19.8946 12.2348 20 12.5 20C12.7652 20 13.0196 19.8946 13.2071 19.7071C13.3946 19.5196 13.5 19.2652 13.5 19V13H19.5C19.7652 13 20.0196 12.8946 20.2071 12.7071C20.3946 12.5196 20.5 12.2652 20.5 12C20.5 11.7348 20.3946 11.4804 20.2071 11.2929C20.0196 11.1054 19.7652 11 19.5 11Z" fill="white"/>
</svg>  