<svg xmlns="http://www.w3.org/2000/svg" width="17" height="17" viewBox="0 0 17 17" fill="none">
    <g clipPath="url(#clip0_58_12323)">
        <path d="M13.1867 5.14843L14.1333 4.20176C13.8333 3.86176 13.5333 3.55509 13.1933 3.26176L12.2467 4.22176C11.2133 3.38176 9.91333 2.88843 8.5 2.88843C6.9087 2.88843 5.38258 3.52057 4.25736 4.64579C3.13214 5.77101 2.5 7.29713 2.5 8.88843C2.5 10.4797 3.13214 12.0058 4.25736 13.1311C5.38258 14.2563 6.9087 14.8884 8.5 14.8884C11.8333 14.8884 14.5 12.2018 14.5 8.88843C14.5 7.47509 14.0067 6.17509 13.1867 5.14843ZM9.16667 9.55509H7.83333V4.88843H9.16667V9.55509ZM10.5 0.888428H6.5V2.22176H10.5V0.888428Z" fill="#FFA726"/>
    </g>
    <defs>
        <clipPath id="clip0_58_12323">
        <rect width="16" height="16" fill="white" transform="translate(0.5 0.221802)"/>
        </clipPath>
    </defs>
</svg>