<svg xmlns="http://www.w3.org/2000/svg" width="21" height="21" viewBox="0 0 21 21" fill="none">
    <path d="M11.0888 1.98315H5.18166C4.27541 1.98315 3.53394 2.72463 3.53394 3.63088V16.8127C3.53394 17.719 4.27541 18.4604 5.18166 18.4604H15.068C15.9743 18.4604 16.7158 17.719 16.7158 16.8127V7.61014C16.7158 7.1735 16.5427 6.75332 16.2297 6.4485L12.2504 2.46923C11.9456 2.15617 11.5254 1.98315 11.0888 1.98315ZM13.4203 12.6934C13.4203 14.6212 11.7643 16.1618 9.80354 15.9724C8.0899 15.8076 6.82939 14.2752 6.82939 12.5533V8.27747C6.82939 7.19821 7.60382 6.21781 8.67484 6.11071C9.91064 5.98713 10.9487 6.95105 10.9487 8.16213V11.8695C10.9487 12.3226 10.578 12.6934 10.1248 12.6934C9.67172 12.6934 9.30098 12.3226 9.30098 11.8695V8.16213C9.30098 7.93145 9.11973 7.7502 8.88905 7.7502C8.65837 7.7502 8.47712 7.93145 8.47712 8.16213V12.6028C8.47712 13.4266 9.03734 14.1846 9.84473 14.3164C10.8828 14.4894 11.7726 13.6903 11.7726 12.6934V10.2218C11.7726 9.76867 12.1433 9.39793 12.5964 9.39793C13.0496 9.39793 13.4203 9.76867 13.4203 10.2218V12.6934ZM11.7726 6.10247V3.63088L15.068 6.92634H12.5964C12.1433 6.92634 11.7726 6.5556 11.7726 6.10247Z" fill="#BDBDBD"/>
</svg>