<svg xmlns="http://www.w3.org/2000/svg" width="18" height="18" viewBox="0 0 18 18" fill="none">
    <path d="M8.82569 1.97168C12.8299 1.97168 16.0757 5.2175 16.0757 9.22168C16.0757 13.2259 12.8299 16.4717 8.82569 16.4717C7.6528 16.4732 6.49719 16.1891 5.45879 15.6437L2.34854 16.4536C2.24462 16.4806 2.13542 16.4801 2.03178 16.4519C1.92814 16.4238 1.83365 16.3691 1.75768 16.2932C1.6817 16.2173 1.62688 16.1228 1.59865 16.0192C1.57042 15.9156 1.56975 15.8064 1.59672 15.7025L2.40582 12.5929C1.85902 11.5534 1.57407 10.3962 1.57569 9.22168C1.57569 5.2175 4.82152 1.97168 8.82569 1.97168ZM9.73339 9.94668H6.46944L6.39549 9.95175C6.26534 9.96966 6.14608 10.0341 6.05975 10.1331C5.97342 10.2321 5.92586 10.3591 5.92586 10.4904C5.92586 10.6218 5.97342 10.7487 6.05975 10.8478C6.14608 10.9468 6.26534 11.0112 6.39549 11.0291L6.46944 11.0342H9.73339L9.80661 11.0291C9.93676 11.0112 10.056 10.9468 10.1424 10.8478C10.2287 10.7487 10.2762 10.6218 10.2762 10.4904C10.2762 10.3591 10.2287 10.2321 10.1424 10.1331C10.056 10.0341 9.93676 9.96966 9.80661 9.95175L9.73339 9.94668ZM11.1819 7.40918H6.46944L6.39549 7.41425C6.26534 7.43216 6.14608 7.49658 6.05975 7.5956C5.97342 7.69463 5.92586 7.82156 5.92586 7.95293C5.92586 8.0843 5.97342 8.21123 6.05975 8.31026C6.14608 8.40928 6.26534 8.4737 6.39549 8.4916L6.46944 8.49668H11.1819L11.2559 8.4916C11.386 8.4737 11.5053 8.40928 11.5916 8.31026C11.678 8.21123 11.7255 8.0843 11.7255 7.95293C11.7255 7.82156 11.678 7.69463 11.5916 7.5956C11.5053 7.49658 11.386 7.43216 11.2559 7.41425L11.1819 7.40918Z" fill="#BDBDBD"/>
</svg>